# AST/ASF file generated using VICON BodyLanguage
# -----------------------------------------------
:version 1.10
:name VICON
:units
  mass 1.0
  length 0.45
  angle deg
:documentation
   .ast/.asf automatically generated from VICON data using
   VICON BodyBuilder and BodyLanguage model FoxedUp or BRILLIANT.MOD
:root
   order TX TY TZ RX RY RZ
   axis XYZ
   position 0 0 0  
   orientation 0 0 0 
:bonedata
  begin
     id 1 
     name lhipjoint
     direction 0.78388 -0.462562 0.414208 
     length 3.01181 
     axis 0 0 0  XYZ
  end
  begin
     id 2 
     name lfemur
     direction 0.34202 -0.939693 0  
     length 6.04673  
     axis 0 0 20  XYZ
    dof rx ry rz
    limits (-160.0 20.0)
           (-70.0 70.0)
           (-60.0 70.0)
  end
  begin
     id 3 
     name ltibia
     direction 0.34202 -0.939693 0   
     length 7.211   
     axis 0 0 20   XYZ
    dof rx
    limits (-10.0 170.0)
  end
  begin
     id 4 
     name lfoot
     direction 0.121887 -0.334882 0.934344   
     length 2.13567   
     axis -90 7.62852e-016 20   XYZ
    dof rx rz
    limits (-45.0 90.0)
           (-70.0 20.0)
  end
  begin
     id 5 
     name ltoes
     direction 1.53555e-011 -4.2179e-011 1   
     length 1.05957   
     axis -90 7.62852e-016 20   XYZ
    dof rx
    limits (-90.0 20.0)
  end
  begin
     id 6 
     name rhipjoint
     direction -0.769387 -0.475875 0.426129   
     length 2.92756  
     axis 0 0 0  XYZ 
  end
  begin
     id 7 
     name rfemur
     direction -0.34202 -0.939693 0   
     length 6.35468   
     axis 0 0 -20   XYZ
    dof rx ry rz
    limits (-160.0 20.0)
           (-70.0 70.0)
           (-70.0 60.0)
  end
  begin
     id 8 
     name rtibia
     direction -0.34202 -0.939693 0   
     length 7.37886   
     axis 0 0 -20   XYZ
    dof rx
    limits (-10.0 170.0)
 end
 begin
     id 9 
     name rfoot
     direction -0.101763 -0.279592 0.954711   
     length 2.21478  
     axis -90 -7.62852e-016 -20   XYZ
    dof rx rz
    limits (-45.0 90.0)
           (-20.0 70.0)
  end
  begin
     id 10 
     name rtoes
     direction -1.53494e-011 -4.21851e-011 1   
     length 1.10506   
     axis -90 -7.62852e-016 -20   XYZ
    dof rx
    limits (-90.0 20.0)
  end
  begin
     id 11 
     name lowerback
     direction 0.00747405 0.999267 0.0375481   
     length 2.13259   
     axis 0 0 0   XYZ
    dof rx ry rz
    limits (-20.0 45.0)
           (-30.0 30.0)
           (-30.0 30.0)
  end
  begin
     id 12 
     name upperback
     direction 0.00661626 0.996177 0.0871029   
     length 2.10528   
     axis 0 0 0   XYZ
    dof rx ry rz
    limits (-20.0 45.0)
           (-30.0 30.0)
           (-30.0 30.0)
  end
  begin
     id 13 
     name thorax
     direction 0.00320659 0.997679 0.0680167   
     length 2.11338   
     axis 0 0 0   XYZ
    dof rx ry rz
    limits (-20.0 45.0)
           (-30.0 30.0)
           (-30.0 30.0)
  end
  begin
     id 14 
     name lowerneck
     direction 0.0374841 0.973033 0.227602   
     length 1.42765   
     axis 0 0 0   XYZ
    dof rx ry rz
    limits (-20.0 45.0)
           (-30.0 30.0)
           (-30.0 30.0)
  end
  begin
     id 15 
     name upperneck
     direction 0.00481585 0.989155 -0.146795   
     length 1.47593   
     axis 0 0 0   XYZ
    dof rx ry rz
    limits (-20.0 45.0)
           (-30.0 30.0)
           (-30.0 30.0)
  end
  begin
     id 16
     name head
     direction -0.00292522 0.997206 -0.0746423  
     length 1.48116  
     axis 0 0 0   XYZ
    dof rx ry rz
    limits (-20.0 45.0)
           (-30.0 30.0)
           (-30.0 30.0)
  end
  begin
     id 17 
     name lclavicle
     direction 0.951444 0.305606 0.0368784  
     length 3.01855  
     axis 0 0 0   XYZ
    dof ry rz
    limits (-20.0 10.0)
           (0.0 20.0)
  end
  begin
     id 18 
     name lhumerus
     direction 1 -4.48977e-011 2.61664e-027   
     length 5.52731   
     axis 180 -30 -90   XYZ
    dof rx ry rz
    limits (-60.0 90.0)
           (-90.0 90.0)
           (-90.0 90.0)
  end
  begin
     id 19
     name lradius
     direction 1 -4.48944e-011 8.22157e-027   
     length 3.11059   
     axis 180 -30 -90   XYZ
    dof rx
    limits (-10.0 170.0)
  end
  begin
     id 20
     name lwrist
     direction 1 -4.48976e-011 1.5779e-026   
     length 1.5553   
     axis -1.15221e-014 90 90   XYZ
    dof ry
    limits (-180.0 0.0)
 end
  begin
     id 21 
     name lhand
     direction 1 -4.49025e-011 3.1558e-026   
     length 0.419626   
     axis -2.01367e-014 90 90   XYZ
    dof rx rz
    limits (-90.0 90.0)
           (-45.0 45.0)
  end
  begin
     id 22 
     name lfingers
     direction 1 -4.4904e-011 6.31161e-026   
     length 0.338313   
     axis -4.02734e-014 90 90   XYZ
    dof rx
    limits (0.0 90.0)
  end
  begin
     id 23
     name lthumb
     direction 0.707107 -6.35004e-011 0.707107   
     length 0.485752   
     axis -90 45 2.85299e-015   XYZ
    dof rx rz
    limits (-45.0 45.0)
           (-45.0 45.0)
  end
  begin
     id 24 
     name rclavicle
     direction -0.968876 0.223791 0.105816   
     length 3.04177  
     axis 0 0 0   XYZ 
    dof ry rz
    limits (-10.0 20.0)
           (-20.0 0.0)
  end
  begin
     id 25 
     name rhumerus
     direction -1 -4.48962e-011 -1.01384e-027  
     length 5.25396   
     axis 180 30 90   XYZ
    dof rx ry rz
    limits (-90.0 60.0)
           (-90.0 90.0)
           (-90.0 90.0)
  end
  begin
     id 26 
     name rradius
     direction -1 -4.48955e-011 8.88542e-027   
     length 3.10567   
     axis 180 30 90   XYZ
    dof rx
    limits (-10.0 170.0)
  end
  begin
     id 27 
     name rwrist
     direction -1 -4.48994e-011 1.5779e-026   
     length 1.55283   
     axis -1.15221e-014 -90 -90   XYZ
    dof ry
    limits (-180.0 0.0)
  end
  begin
     id 28
     name rhand
     direction -1 -4.48891e-011 3.1558e-026   
     length 0.498676   
     axis -2.01367e-014 -90 -90   XYZ
    dof rx rz
    limits (-90.0 90.0)
           (-45.0 45.0)
  end
  begin
     id 29
     name rfingers
     direction -1 -4.48972e-011 6.31161e-026   
     length 0.402045   
     axis -4.02734e-014 -90 -90   XYZ
    dof rx
    limits (0.0 90.0)
  end
  begin
     id 30
     name rthumb
     direction -0.707107 -6.34849e-011 0.707107   
     length 0.577259   
     axis -90 -45 -2.85299e-015   XYZ
    dof rx rz
    limits (-45.0 45.0)
           (-45.0 45.0)
  end
:hierarchy
  begin
    root lhipjoint rhipjoint lowerback
    lhipjoint lfemur
    lfemur ltibia
    ltibia lfoot
    lfoot ltoes
    rhipjoint rfemur
    rfemur rtibia
    rtibia rfoot
    rfoot rtoes
    lowerback upperback
    upperback thorax
    thorax lowerneck lclavicle rclavicle
    lowerneck upperneck
    upperneck head
    lclavicle lhumerus
    lhumerus lradius
    lradius lwrist
    lwrist lhand lthumb
    lhand lfingers
    rclavicle rhumerus
    rhumerus rradius
    rradius rwrist
    rwrist rhand rthumb
    rhand rfingers
  end

#!OML:ASF H:\Pregnant\Project 1\Capture day 1\Session 1\femalepreg.ASF
:FULLY-SPECIFIED
:DEGREES
1
root 10.2958 14.3297 38.5843 -165.895 -5.63765 162.647
lowerback -18.8429 4.49478 -11.4177
upperback -3.27896 7.20779 -11.3172
thorax 6.95937 2.49876 -4.31902
lowerneck -2.87777 14.7115 18.7948
upperneck 19.4944 19.0059 -7.17597
head 9.14478 9.55599 -3.33458
rclavicle 1.80894e-014 -1.20861e-013
rhumerus -36.765 18.8518 -103.782
rradius 29.6564
rwrist -1.37757
rhand -17.9987 -19.8414
rfingers 7.12502
rthumb 8.27158 -49.6594
lclavicle 1.80894e-014 -1.20861e-013
lhumerus -31.0701 -30.8208 83.1261
lradius 27.0781
lwrist 46.5679
lhand -27.6977 3.95957
lfingers 7.12502
lthumb -1.09398 33.9365
rfemur -44.3496 11.7551 -6.43733
rtibia 66.8028
rfoot -23.9732 -35.3661
rtoes -1.64357
lfemur -12.2218 -5.36422 -46.6438
ltibia 6.64135
lfoot -6.25197 -4.11825
ltoes -11.6559
2
root 10.2965 14.3305 38.586 -165.885 -5.63586 162.635
lowerback -18.8817 4.43807 -11.483
upperback -3.29641 7.14702 -11.2605
thorax 6.94393 2.46865 -4.23255
lowerneck -3.12321 14.412 18.5473
upperneck 20.2186 18.4971 -6.91916
head 9.32079 9.29876 -3.2741
rclavicle -8.09054e-014 1.1291e-013
rhumerus -36.7866 18.9448 -103.741
rradius 29.6296
rwrist -1.37667
rhand -17.998 -19.8307
rfingers 7.12502
rthumb 8.27228 -49.6488
lclavicle -8.09054e-014 1.1291e-013
lhumerus -31.1202 -30.5699 83.1325
lradius 27.0447
lwrist 46.5503
lhand -27.5845 3.61212
lfingers 7.12502
lthumb -0.984573 33.5896
rfemur -44.3638 11.759 -6.45804
rtibia 66.7987
rfoot -23.9945 -35.3474
rtoes -1.5227
lfemur -12.134 -5.36887 -46.6577
ltibia 6.45673
lfoot -6.16526 -4.15016
ltoes -11.5381
3
root 10.2977 14.3318 38.5876 -165.878 -5.64307 162.629
lowerback -18.9351 4.38404 -11.5432
upperback -3.27009 7.10445 -11.2085
thorax 6.98735 2.44656 -4.14935
lowerneck -3.52817 14.1229 18.2425
upperneck 20.9884 17.9703 -6.6011
head 9.53099 9.03106 -3.17603
rclavicle -3.23025e-014 -8.5875e-014
rhumerus -36.7159 19.0102 -103.666
rradius 29.6066
rwrist -1.35196
rhand -18.0386 -19.8309
rfingers 7.12502
rthumb 8.23304 -49.6505
lclavicle -3.23025e-014 -8.5875e-014
lhumerus -31.0748 -30.3581 83.1043
lradius 27.0746
lwrist 46.4684
lhand -27.69 3.88806
lfingers 7.12502
lthumb -1.08652 33.865
rfemur -44.3648 11.7478 -6.45887
rtibia 66.7877
rfoot -23.9861 -35.3627
rtoes -1.57446
lfemur -12.163 -5.37591 -46.6464
ltibia 6.49074
lfoot -6.18661 -4.14435
ltoes -11.361
4
root 10.2995 14.3321 38.5904 -165.864 -5.63083 162.656
lowerback -18.9565 4.32521 -11.5828
upperback -3.27301 7.04167 -11.1286
thorax 6.97987 2.41917 -4.05161
lowerneck -3.86827 13.8666 17.8427
upperneck 21.7257 17.4946 -6.23047
head 9.71496 8.78597 -3.04463
rclavicle -2.29596e-014 -6.20208e-014
rhumerus -36.6962 19.1029 -103.567
rradius 29.6215
rwrist -1.36828
rhand -17.9886 -19.822
rfingers 7.12502
rthumb 8.28134 -49.6397
lclavicle -2.29596e-014 -6.20208e-014
lhumerus -31.0451 -30.0828 83.1089
lradius 27.0279
lwrist 46.4423
lhand -27.6602 3.8138
lfingers 7.12502
lthumb -1.05768 33.7909
rfemur -44.4109 11.7668 -6.43568
rtibia 66.7811
rfoot -23.9619 -35.3581
rtoes -1.5404
lfemur -12.2062 -5.36378 -46.6062
ltibia 6.49713
lfoot -6.1849 -4.13249
ltoes -11.1682
5
root 10.3014 14.3327 38.5932 -165.85 -5.62488 162.673
lowerback -18.9925 4.25793 -11.6378
upperback -3.26054 6.97658 -11.0482
thorax 6.99576 2.38921 -3.94526
lowerneck -4.23102 13.6033 17.4457
upperneck 22.462 17.0071 -5.87943
head 9.90887 8.53338 -2.91974
rclavicle 9.15403e-014 -9.70069e-014
rhumerus -36.6492 19.2201 -103.473
rradius 29.6179
rwrist -1.37763
rhand -17.9691 -19.8184
rfingers 7.12502
rthumb 8.30018 -49.6353
lclavicle 9.15403e-014 -9.70069e-014
lhumerus -31.0017 -29.7981 83.0997
lradius 27.0038
lwrist 46.4051
lhand -27.6615 3.80006
lfingers 7.12502
lthumb -1.05899 33.7772
rfemur -44.4475 11.7787 -6.42136
rtibia 66.7733
rfoot -23.9533 -35.3569
rtoes -1.49777
lfemur -12.2635 -5.3584 -46.5721
ltibia 6.54103
lfoot -6.204 -4.1203
ltoes -10.9736
6
root 10.3033 14.3332 38.5959 -165.835 -5.61537 162.687
lowerback -19.034 4.18271 -11.7038
upperback -3.23855 6.90694 -10.9594
thorax 7.02321 2.35678 -3.82435
lowerneck -4.60773 13.3479 17.019
upperneck 23.1934 16.5298 -5.5258
head 10.1072 8.28306 -2.78678
rclavicle -1.8487e-014 1.74931e-014
rhumerus -36.5883 19.3619 -103.367
rradius 29.6189
rwrist -1.39419
rhand -17.938 -19.816
rfingers 7.12502
rthumb 8.33012 -49.6317
lclavicle -1.8487e-014 1.74931e-014
lhumerus -30.9403 -29.4876 83.0891
lradius 26.9759
lwrist 46.3732
lhand -27.67 3.78748
lfingers 7.12502
lthumb -1.06717 33.7646
rfemur -44.4867 11.7913 -6.41128
rtibia 66.7679
rfoot -23.944 -35.3552
rtoes -1.45826
lfemur -12.3262 -5.35045 -46.5405
ltibia 6.59405
lfoot -6.23004 -4.10532
ltoes -10.7688
7
root 10.3052 14.3336 38.5981 -165.821 -5.60162 162.692
lowerback -19.0853 4.09553 -11.7882
upperback -3.20353 6.83043 -10.8588
thorax 7.06724 2.32035 -3.68183
lowerneck -4.99393 13.0998 16.5654
upperneck 23.9144 16.0659 -5.18128
head 10.309 8.03573 -2.64995
rclavicle -5.02925e-014 1.25632e-013
rhumerus -36.5138 19.5417 -103.248
rradius 29.6241
rwrist -1.42049
rhand -17.9079 -19.8049
rfingers 7.12502
rthumb 8.35921 -49.6195
lclavicle -5.02925e-014 1.25632e-013
lhumerus -30.8598 -29.1378 83.0792
lradius 26.9412
lwrist 46.3492
lhand -27.6734 3.73618
lfingers 7.12502
lthumb -1.07044 33.7132
rfemur -44.5225 11.8024 -6.41125
rtibia 66.7635
rfoot -23.9398 -35.3496
rtoes -1.41731
lfemur -12.3398 -5.34062 -46.5241
ltibia 6.56567
lfoot -6.22379 -4.09937
ltoes -10.5739
